Coordinates
version=1
nRows=5
nColumns=46
inDegrees=yes

Units are S.I. units (second, meters, Newtons, ...)
Angles are in degrees.

endheader
time	pelvis_tilt	pelvis_list	pelvis_rotation	pelvis_tx	pelvis_ty	pelvis_tz	bb_angle	bb_tx	bb_ty	bb_tz	hip_flexion_r	hip_adduction_r	hip_rotation_r	knee_angle_r	knee_angle_r_beta	ankle_angle_r	subtalar_angle_r	mtp_angle_r	crank_angle_r	hip_flexion_l	hip_adduction_l	hip_rotation_l	knee_angle_l	knee_angle_l_beta	ankle_angle_l	subtalar_angle_l	mtp_angle_l	crank_angle_l	lumbar_extension	lumbar_bending	lumbar_rotation	arm_flex_r	arm_add_r	arm_rot_r	elbow_flex_r	pro_sup_r	wrist_flex_r	wrist_dev_r	arm_flex_l	arm_add_l	arm_rot_l	elbow_flex_l	pro_sup_l	wrist_flex_l	wrist_dev_l
      5.00000000	    -37.05098250	      1.26416891	     15.20319655	      0.41090376	      1.17956744	     -0.28331225	      0.00000000	      0.50000000	      0.00000000	      0.25000000	     39.28126018	    -14.45112743	    -12.90905072	     35.12054807	      0.61296920	    -24.37163798	     -3.42412114	      0.00000000	      0.00000000	     87.36107529	      5.81151884	      2.03720653	     90.90361720	      1.58656742	      5.39954971	     -0.51640599	      0.00000000	      0.00000000	    -57.61152745	      9.48336327	    -28.49919122	     48.31115104	     -2.71417257	     32.54349425	     87.50921524	     48.69021381	      0.00000000	      0.00000000	      7.60994769	    -48.17680560	    -11.86435891	    118.03902808	     53.60875105	      0.00000000	      0.00000000
      5.00500000	    -36.94819028	      0.89303756	     14.81000856	      0.41092897	      1.18065937	     -0.28412248	      0.00000000	      0.50000000	      0.00000000	      0.25000000	     40.23077022	    -14.09140356	    -12.60991495	     37.73108258	      0.65853162	    -24.15854090	     -4.90683162	      0.00000000	      0.00000000	     85.95801987	      5.82457303	      2.53786693	     88.64101252	      1.54707752	      7.32779845	     -1.16037064	      0.00000000	      0.00000000	    -57.93324181	      9.62827432	    -28.05510580	     48.80171412	     -2.80237857	     32.57801106	     87.49160574	     48.68910910	      0.00000000	      0.00000000	      7.62296851	    -47.73157216	    -12.08514621	    118.15423844	     53.60199157	      0.00000000	      0.00000000
      5.01000000	    -37.15096331	      0.80625890	     14.12084408	      0.41107565	      1.18129996	     -0.28450590	      0.00000000	      0.50000000	      0.00000000	      0.25000000	     41.62513272	    -13.71610671	    -11.54888186	     40.44547112	      0.70590664	    -24.10408783	     -7.00393132	      0.00000000	      0.00000000	     84.62851615	      5.63233129	      2.72619302	     86.12152768	      1.50310421	      9.04860599	     -1.71075471	      0.00000000	      0.00000000	    -57.97739258	      9.22665282	    -27.82912449	     49.24052180	     -3.18061246	     33.20813126	     87.45429991	     48.75640782	      0.00000000	      0.00000000	      7.88386154	    -46.31254838	    -12.80782784	    118.50959518	     53.57151307	      0.00000000	      0.00000000
      5.01500000	    -37.16769740	      0.58413940	     13.48679957	      0.41131064	      1.18191837	     -0.28512497	      0.00000000	      0.50000000	      0.00000000	      0.25000000	     42.79699185	    -13.27742986	    -10.74966297	     43.15782353	      0.75324612	    -23.68922093	     -8.31971526	      0.00000000	      0.00000000	     83.10474869	      5.48515974	      3.06258063	     83.45397942	      1.45654671	     10.27424307	     -2.67481456	      0.00000000	      0.00000000	    -58.14317507	      9.06724040	    -27.46796184	     49.75588530	     -3.42943521	     33.65559304	     87.44309452	     48.80595672	      0.00000000	      0.00000000	      7.99928142	    -45.20884095	    -13.31661509	    118.65908386	     53.53500099	      0.00000000	      0.00000000
      5.02000000	    -36.96622858	      0.15327331	     12.87640879	      0.41164250	      1.18248177	     -0.28577164	      0.00000000	      0.50000000	      0.00000000	      0.25000000	     43.72271836	    -12.67926838	    -10.27511477	     45.82774152	      0.79984498	    -23.17742903	     -9.30325501	      0.00000000	      0.00000000	     81.42173012	      5.27157907	      3.65451570	     80.82330034	      1.41063270	     11.32844926	     -3.53904665	      0.00000000	      0.00000000	    -58.45745372	      9.13105852	    -26.87973292	     50.18798270	     -3.52937577	     33.80305024	     87.37933873	     48.80956744	      0.00000000	      0.00000000	      7.97240007	    -44.58724869	    -13.48826296	    118.69004427	     53.52189986	      0.00000000	      0.00000000
